# The Great Editor v0.0.1
mtllib floor_1.mtl
o floor_1
v 1.3623763400432596 -4.873109627369144 0
v 1.3623763400432596 -4.873109627369144 -0.1
v 31.386964940689026 -5.030285840493632 0
v 31.386964940689026 -5.030285840493632 -0.1
v 31.491782263310995 -12.208978399078353 0
v 31.491782263310995 -12.208978399078353 -0.1
v 28.714620921913493 -12.261337289580872 0
v 28.714620921913493 -12.261337289580872 -0.1
v 27.82387276286062 -13.152135219442206 0
v 27.82387276286062 -13.152135219442206 -0.1
v 3.039154877143958 -12.837733022384768 0
v 3.039154877143958 -12.837733022384768 -0.1
v 3.0915635384549414 -12.523330825327328 0
v 3.0915635384549414 -12.523330825327328 -0.1
v 1.2575590174212925 -12.470971934824808 0
v 1.2575590174212925 -12.470971934824808 -0.1
vt 1.3623763400432596 -4.873109627369144 0
vt 31.386964940689026 -5.030285840493632 0
vt 31.491782263310995 -12.208978399078353 0
vt 28.714620921913493 -12.261337289580872 0
vt 27.82387276286062 -13.152135219442206 0
vt 3.039154877143958 -12.837733022384768 0
vt 3.0915635384549414 -12.523330825327328 0
vt 1.2575590174212925 -12.470971934824808 0
vn 0 0 1
vn 0 0 -1
usemtl floor_1
s off
f 1/1/1 15/8/1 13/7/1
f 14/7/2 16/8/2 2/1/2
f 1/1/1 13/7/1 9/5/1
f 10/5/2 14/7/2 2/1/2
f 1/1/1 9/5/1 3/2/1
f 4/2/2 10/5/2 2/1/2
f 3/2/1 9/5/1 7/4/1
f 8/4/2 10/5/2 4/2/2
f 3/2/1 7/4/1 5/3/1
f 6/3/2 8/4/2 4/2/2
f 9/5/1 13/7/1 11/6/1
f 12/6/2 14/7/2 10/5/2
